<?xml version="1.0" encoding="UTF-8"?>
<svg version="1.1" xmlns="http://www.w3.org/2000/svg" width="156" height="140">
<path d="M0 0 C2.2578125 2.625 2.2578125 2.625 4.125 6 C4.46063965 6.59014893 4.7962793 7.18029785 5.14208984 7.78833008 C6.11723172 9.51302131 7.05936959 11.25624659 8 13 C8.874852 14.56258287 9.74982917 16.12509567 10.625 17.6875 C11.00914063 18.39261719 11.39328125 19.09773438 11.7890625 19.82421875 C13.13943323 22.25053002 14.56227232 24.62446519 16 27 C18.23634616 30.6990069 20.36264752 34.4371514 22.43359375 38.23046875 C23.76785221 40.58954419 25.13956233 42.91533521 26.53515625 45.23828125 C26.99051758 45.99939209 27.44587891 46.76050293 27.91503906 47.54467773 C28.83732483 49.08262631 29.76495964 50.61738137 30.69824219 52.14868164 C31.12395508 52.86016357 31.54966797 53.57164551 31.98828125 54.3046875 C32.37540283 54.94390137 32.76252441 55.58311523 33.16137695 56.24169922 C34 58 34 58 34 61 C34.66 61 35.32 61 36 61 C36.41378906 61.84691406 36.82757813 62.69382813 37.25390625 63.56640625 C39.04454652 67.08759819 40.96257273 70.5180545 42.9375 73.9375 C44.96484375 77.46484375 44.96484375 77.46484375 45.97021484 79.21923828 C46.68015118 80.44689964 47.39984695 81.6689514 48.12744141 82.88623047 C50.45774569 86.8268654 51.8421901 89.36795445 51 94 C49.01776875 96.20247917 47.62457264 96.86120608 44.75 97.5 C41.26552224 96.86645859 39.12273971 95.29015981 36.203125 93.34375 C34.01960054 92.01195494 31.95918647 91.13041544 29.5625 90.25 C24.64076107 88.39388826 20.1166354 85.99757358 15.5 83.5 C5.20917202 77.43619421 5.20917202 77.43619421 -6.1875 75 C-9.05875813 76.02089178 -11.54314754 77.36408397 -14.13671875 78.95703125 C-16.11039404 80.06179289 -18.05486692 80.81469359 -20.1875 81.5625 C-23.2700438 82.65497242 -25.40573265 83.99153496 -28 86 C-29.66810127 86.70983033 -31.33682076 87.41826459 -33.00952148 88.1171875 C-35.04213578 89.01868796 -36.98167595 90.02100102 -38.9375 91.078125 C-39.60523437 91.43390625 -40.27296875 91.7896875 -40.9609375 92.15625 C-42.32687496 92.88893676 -43.68629242 93.63390304 -45.0390625 94.390625 C-49.69465282 96.8352593 -52.7360982 97.55285103 -58 96 C-60.17909003 92.73136495 -60.39678315 91.78381609 -60 88 C-59.07421875 85.9921875 -59.07421875 85.9921875 -57.6875 83.875 C-54.49230056 78.82036146 -51.47927914 73.68358384 -48.5 68.5 C-45.60209774 63.47522369 -42.69884007 58.45798471 -39.6875 53.5 C-37.75873052 50.31643446 -35.94908935 47.0915454 -34.1875 43.8125 C-31.75156756 39.29227891 -29.16031229 34.8898741 -26.5 30.5 C-23.35352323 25.30606445 -20.35573371 20.0630249 -17.4765625 14.71484375 C-15.77130717 11.57951979 -14.02311031 8.47247048 -12.25 5.375 C-11.39148438 3.87066406 -11.39148438 3.87066406 -10.515625 2.3359375 C-7.66069238 -2.0641906 -4.77294058 -1.2317266 0 0 Z M-5 24 C-5.84114171 25.43294498 -6.67265687 26.87154405 -7.5 28.3125 C-8.19609375 29.51326172 -8.19609375 29.51326172 -8.90625 30.73828125 C-10.21767886 33.0314118 -10.21767886 33.0314118 -10 36 C-10.66 36 -11.32 36 -12 36 C-12.33733154 36.59425781 -12.67466309 37.18851563 -13.0222168 37.80078125 C-14.57554946 40.53485934 -16.13150684 43.26743522 -17.6875 46 C-18.48317383 47.40185547 -18.48317383 47.40185547 -19.29492188 48.83203125 C-22.11950648 53.78805086 -24.99072071 58.64266362 -28.22583008 63.34375 C-29.31953415 65.18838998 -29.31953415 65.18838998 -28 68 C-27.45585449 67.73783691 -26.91170898 67.47567383 -26.35107422 67.20556641 C-23.86080524 66.00835225 -21.36794069 64.81664027 -18.875 63.625 C-18.0190625 63.2125 -17.163125 62.8 -16.28125 62.375 C-6.93345292 57.91681985 -6.93345292 57.91681985 -3 57 C0.4375 58.6875 0.4375 58.6875 2.21875 59.85546875 C4.97051623 61.62359924 7.99077835 62.73295931 11 64 C13.1113272 65.09021259 15.21191787 66.19546037 17.30078125 67.328125 C17.86152344 67.54984375 18.42226562 67.7715625 19 68 C19.66 67.67 20.32 67.34 21 67 C20.55269531 66.23816406 20.10539062 65.47632813 19.64453125 64.69140625 C19.03996094 63.65886719 18.43539062 62.62632813 17.8125 61.5625 C17.22082031 60.55316406 16.62914062 59.54382813 16.01953125 58.50390625 C14.51983195 55.9215927 13.060092 53.31932843 11.61328125 50.70703125 C8.90798879 45.82266153 6.15504756 40.96717075 3.375 36.125 C2.89804688 35.28453125 2.42109375 34.4440625 1.9296875 33.578125 C1.465625 32.77117188 1.0015625 31.96421875 0.5234375 31.1328125 C0.11013184 30.40980957 -0.30317383 29.68680664 -0.72900391 28.94189453 C-1.98368447 27.02492773 -3.32261256 25.55169017 -5 24 Z " fill="#069AC8" transform="translate(79,20)"/>
<path d="M0 0 C2.2578125 2.625 2.2578125 2.625 4.125 6 C4.62845947 6.88522339 4.62845947 6.88522339 5.14208984 7.78833008 C6.11723172 9.51302131 7.05936959 11.25624659 8 13 C8.874852 14.56258287 9.74982917 16.12509567 10.625 17.6875 C11.00914063 18.39261719 11.39328125 19.09773438 11.7890625 19.82421875 C13.13943323 22.25053002 14.56227232 24.62446519 16 27 C18.37576751 30.92915396 20.66730339 34.8875295 22.82421875 38.94140625 C24.08458947 41.26202008 24.08458947 41.26202008 26.4375 44.125 C29.61173753 49.55562324 27.20096478 57.2256643 26 63 C25.3805174 65.35108934 24.70214431 67.67152145 24 70 C17.9538621 64.66517244 14.53476146 57.77136369 10.66796875 50.796875 C7.91936515 45.84341554 5.13010239 40.91451193 2.3125 36 C1.82716797 35.14277344 1.34183594 34.28554688 0.84179688 33.40234375 C0.37451172 32.58894531 -0.09277344 31.77554688 -0.57421875 30.9375 C-1.20203247 29.83728516 -1.20203247 29.83728516 -1.8425293 28.71484375 C-2.90008088 26.84531041 -2.90008088 26.84531041 -5 26 C-6.65 29.3 -8.3 32.6 -10 36 C-10.66 36 -11.32 36 -12 36 C-12.36158203 37.25683594 -12.36158203 37.25683594 -12.73046875 38.5390625 C-14.18049437 42.49205542 -16.10180806 45.8105086 -18.3125 49.375 C-18.71694336 50.0354834 -19.12138672 50.6959668 -19.53808594 51.37646484 C-20.33429091 52.6750144 -21.13286905 53.97211254 -21.93408203 55.26757812 C-22.81279187 56.69573319 -23.67267172 58.13545609 -24.52734375 59.578125 C-26.9529523 63.6388882 -29.50366634 66.80335209 -33 70 C-33.48452291 67.92347325 -33.96014936 65.84458736 -34.3984375 63.7578125 C-34.81114373 61.86579563 -35.27782114 59.98499009 -35.7890625 58.1171875 C-37.12134951 52.50986966 -37.47065206 48.84744859 -34.6875 43.6875 C-33.48232812 41.77632354 -32.25046032 39.88185645 -31 38 C-29.87160607 36.15710969 -28.76454818 34.30243572 -27.65893555 32.44580078 C-26.50249746 30.50419313 -25.33339222 28.57058181 -24.1640625 26.63671875 C-21.81709585 22.72476782 -19.63882375 18.73133463 -17.4765625 14.71484375 C-15.77130717 11.57951979 -14.02311031 8.47247048 -12.25 5.375 C-11.67765625 4.37210938 -11.1053125 3.36921875 -10.515625 2.3359375 C-7.66069238 -2.0641906 -4.77294058 -1.2317266 0 0 Z " fill="#8C358D" transform="translate(79,20)"/>
<path d="M0 0 C0.66 0.33 1.32 0.66 2 1 C2.50244141 2.85766602 2.50244141 2.85766602 2.8515625 5.25390625 C2.98046875 6.10791016 3.109375 6.96191406 3.2421875 7.84179688 C3.36851563 8.73962891 3.49484375 9.63746094 3.625 10.5625 C3.7590625 11.46419922 3.893125 12.36589844 4.03125 13.29492188 C4.362209 15.52889514 4.68473505 17.76376696 5 20 C6.98567708 19.48323568 8.97135417 18.96647135 10.95703125 18.44970703 C13.34505703 17.92404457 15.56300801 17.847688 18 18 C18.495 16.515 18.495 16.515 19 15 C22.37817425 14.15545644 24.67465243 13.89155081 28 15 C27.67 16.98 27.34 18.96 27 21 C28.32 21.33 29.64 21.66 31 22 C31 22.66 31 23.32 31 24 C30.01 24 29.02 24 28 24 C27.505 25.485 27.505 25.485 27 27 C23.53556982 29.51958558 19.83235943 30.82124438 15.84375 32.25 C13.58616836 33.16833829 11.92154886 34.51234927 10 36 C8.33189873 36.70983033 6.66317924 37.41826459 4.99047852 38.1171875 C2.95786422 39.01868796 1.01832405 40.02100102 -0.9375 41.078125 C-1.60523437 41.43390625 -2.27296875 41.7896875 -2.9609375 42.15625 C-4.32687496 42.88893676 -5.68629242 43.63390304 -7.0390625 44.390625 C-11.69465282 46.8352593 -14.7360982 47.55285103 -20 46 C-22.17909003 42.73136495 -22.39678315 41.78381609 -22 38 C-21.07421875 35.9921875 -21.07421875 35.9921875 -19.6875 33.875 C-16.47958115 28.79579515 -13.43903745 23.64029964 -10.4375 18.4375 C-9.97883545 17.64649902 -9.5201709 16.85549805 -9.04760742 16.04052734 C-5.97206596 10.72617667 -2.96472347 5.37691935 0 0 Z " fill="#059CCA" transform="translate(41,70)"/>
<path d="M0 0 C0.99 0 1.98 0 3 0 C3 0.66 3 1.32 3 2 C4.32 1.34 5.64 0.68 7 0 C7 1.98 7 3.96 7 6 C7.66 6 8.32 6 9 6 C9 6.99 9 7.98 9 9 C8.34 9 7.68 9 7 9 C6.63841797 10.25683594 6.63841797 10.25683594 6.26953125 11.5390625 C4.81950563 15.49205542 2.89819194 18.8105086 0.6875 22.375 C0.28305664 23.0354834 -0.12138672 23.6959668 -0.53808594 24.37646484 C-1.33429091 25.6750144 -2.13286905 26.97211254 -2.93408203 28.26757812 C-3.81279187 29.69573319 -4.67267172 31.13545609 -5.52734375 32.578125 C-7.9529523 36.6388882 -10.50366634 39.80335209 -14 43 C-14.48452291 40.92347325 -14.96014936 38.84458736 -15.3984375 36.7578125 C-15.81114373 34.86579563 -16.27782114 32.98499009 -16.7890625 31.1171875 C-18.54766353 23.71560296 -17.61108119 19.62474573 -13.7734375 13.08203125 C-11.84705843 10.82044525 -10.90312506 10.32327375 -8 10 C-7.731875 8.88625 -7.46375 7.7725 -7.1875 6.625 C-6 3 -6 3 -3 1 C-3 1.66 -3 2.32 -3 3 C-2.34 3 -1.68 3 -1 3 C-0.67 2.01 -0.34 1.02 0 0 Z " fill="#6B3580" transform="translate(60,47)"/>
<path d="M0 0 C0.928125 0.45375 1.85625 0.9075 2.8125 1.375 C4.33329303 2.02092822 5.85412981 2.66675347 7.375 3.3125 C10.49881905 4.70259948 13.21113528 6.11294373 15.8125 8.375 C14.8125 9.375 14.8125 9.375 11.75 9.4375 C10.780625 9.416875 9.81125 9.39625 8.8125 9.375 C8.4825 10.365 8.1525 11.355 7.8125 12.375 C6.1728125 12.5915625 6.1728125 12.5915625 4.5 12.8125 C0.88127013 13.25788104 0.88127013 13.25788104 -2.1875 14.375 C-1.5275 14.705 -0.8675 15.035 -0.1875 15.375 C-0.1875 16.035 -0.1875 16.695 -0.1875 17.375 C-2.4975 18.035 -4.8075 18.695 -7.1875 19.375 C-7.1875 18.715 -7.1875 18.055 -7.1875 17.375 C-6.1975 17.375 -5.2075 17.375 -4.1875 17.375 C-6.1129644 15.1513932 -6.1129644 15.1513932 -9.1875 14.375 C-8.5275 12.395 -7.8675 10.415 -7.1875 8.375 C-10.56214024 8.1246423 -10.56214024 8.1246423 -14.1875 8.375 C-14.6309375 8.849375 -15.074375 9.32375 -15.53125 9.8125 C-17.92694246 12.07258723 -20.15536018 12.11244282 -23.375 12.5625 C-24.46167969 12.72105469 -25.54835937 12.87960938 -26.66796875 13.04296875 C-27.49941406 13.15253906 -28.33085938 13.26210937 -29.1875 13.375 C-27.875 11.375 -27.875 11.375 -26.1875 9.375 C-25.1975 9.375 -24.2075 9.375 -23.1875 9.375 C-21.29420263 8.68008821 -21.29420263 8.68008821 -19.31640625 7.6953125 C-18.57712891 7.34339844 -17.83785156 6.99148437 -17.07617188 6.62890625 C-16.30853516 6.25636719 -15.54089844 5.88382812 -14.75 5.5 C-13.98623047 5.13519531 -13.22246094 4.77039063 -12.43554688 4.39453125 C-8.21525773 2.38194475 -8.21525773 2.38194475 -4.07397461 0.21435547 C-2.1875 -0.625 -2.1875 -0.625 0 0 Z " fill="#10B4E1" transform="translate(76.1875,76.625)"/>
<path d="M0 0 C2.31 0.33 4.62 0.66 7 1 C7 1.66 7 2.32 7 3 C9.31 3 11.62 3 14 3 C14 3.99 14 4.98 14 6 C16.8610844 5.15525861 16.8610844 5.15525861 18.75 4 C21 3 21 3 24.5625 2.5 C28.11295563 2.23464413 28.11295563 2.23464413 31 0 C36.76636862 6.76175368 36.76636862 6.76175368 37.625 11.3125 C37 14 37 14 35.3125 15.875 C32.40718817 17.28839495 31.20707862 17.5831052 28 17 C26.00936853 15.87776481 24.13346309 14.63019334 22.234375 13.359375 C19.89840825 11.93819243 17.61716317 10.96791586 15.0625 10 C10.17541355 8.13140812 5.25330925 6.09067346 1 3 C0.67 2.01 0.34 1.02 0 0 Z " fill="#0F759F" transform="translate(93,100)"/>
<path d="M0 0 C4.27387678 1.80676765 6.00915904 4.05378785 8.15234375 8.09765625 C10.49556293 16.12075232 7.33447299 25.20506445 5 33 C0.10960512 28.6849457 -2.8054653 23.64087575 -6 18 C-6.70382813 16.81083984 -6.70382813 16.81083984 -7.421875 15.59765625 C-10.02190363 11.12407758 -11.81990408 7.04222804 -13 2 C-10.50638429 3.20381448 -8.31856917 4.45428722 -6 6 C-6.33 6.99 -6.66 7.98 -7 9 C-6.01 10.485 -6.01 10.485 -5 12 C-5 12.99 -5 13.98 -5 15 C-1.535 14.505 -1.535 14.505 2 14 C2.33 11.36 2.66 8.72 3 6 C1.68 5.67 0.36 5.34 -1 5 C-0.67 3.35 -0.34 1.7 0 0 Z " fill="#462C70" transform="translate(98,57)"/>
<path d="M0 0 C1.32 0.66 2.64 1.32 4 2 C4 2.66 4 3.32 4 4 C4.639375 4.2475 5.27875 4.495 5.9375 4.75 C8 6 8 6 8.75 8.125 C8.87375 9.053125 8.87375 9.053125 9 10 C6.69 10.33 4.38 10.66 2 11 C2.33 11.33 2.66 11.66 3 12 C0.26507756 15.23218107 -1.45874416 16.83857282 -5.5625 18.0625 C-9 18 -9 18 -11.4375 16.375 C-13.29509872 13.55144995 -13.57996839 12.3141051 -13 9 C-11.6875 6.6875 -11.6875 6.6875 -10 5 C-9.01 5 -8.02 5 -7 5 C-7 4.34 -7 3.68 -7 3 C-6.34 3 -5.68 3 -5 3 C-4.67 3.66 -4.34 4.32 -4 5 C-2.68 3.35 -1.36 1.7 0 0 Z " fill="#1385AF" transform="translate(32,99)"/>
<path d="M0 0 C6.70126536 -0.48736475 11.06561592 0.92291196 17 4 C14 6 14 6 12 6 C11.814375 6.639375 11.62875 7.27875 11.4375 7.9375 C10 10 10 10 6.375 10.75 C4.704375 10.87375 4.704375 10.87375 3 11 C3 11.66 3 12.32 3 13 C4.32 13.66 5.64 14.32 7 15 C6.01 15.495 6.01 15.495 5 16 C2.7578125 15.0390625 2.7578125 15.0390625 0.125 13.625 C-2.91304598 12.00168588 -5.61250002 10.6775 -9 10 C-9 9.01 -9 8.02 -9 7 C-9.99 6.67 -10.98 6.34 -12 6 C-8.36576791 3.67409146 -5.22911669 3.83734167 -1 4 C-0.67 2.68 -0.34 1.36 0 0 Z " fill="#12AEDA" transform="translate(85,85)"/>
<path d="M0 0 C-0.33 1.98 -0.66 3.96 -1 6 C0.32 6.33 1.64 6.66 3 7 C3 7.66 3 8.32 3 9 C2.01 9 1.02 9 0 9 C0 9.66 0 10.32 0 11 C-1.98 11 -3.96 11 -6 11 C-6 10.01 -6 9.02 -6 8 C-6.66386719 8.08378906 -7.32773437 8.16757813 -8.01171875 8.25390625 C-16.78207381 9.26537786 -16.78207381 9.26537786 -21 8 C-21 7.34 -21 6.68 -21 6 C-17.14243493 3.84694043 -14.44870215 2.60746746 -10 3 C-9.67 2.01 -9.34 1.02 -9 0 C-5.93109813 -1.53445094 -3.29905734 -0.54984289 0 0 Z " fill="#03ABDB" transform="translate(69,85)"/>
<path d="M0 0 C2.62002725 2.37050084 4.35819909 4.87276017 6 8 C6 8.99 6 9.98 6 11 C6.66 11 7.32 11 8 11 C9.84827434 14.6125362 11.55049545 18.2089881 13 22 C9.73539027 20.19587357 8.11070205 19.16605307 6 16 C3.66924071 16.95865509 3.66924071 16.95865509 2 20 C1.34 20 0.68 20 0 20 C-0.66 20.99 -1.32 21.98 -2 23 C-1.86183041 19.35383329 -1.71318466 15.70816926 -1.5625 12.0625 C-1.50352539 10.50112305 -1.50352539 10.50112305 -1.44335938 8.90820312 C-1.40146484 7.91884766 -1.35957031 6.92949219 -1.31640625 5.91015625 C-1.27974854 4.99371338 -1.24309082 4.07727051 -1.20532227 3.13305664 C-1 1 -1 1 0 0 Z " fill="#05B1DF" transform="translate(107,70)"/>
<path d="M0 0 C6.95171674 6.76877682 6.95171674 6.76877682 7.125 11.1875 C7.08375 12.115625 7.0425 13.04375 7 14 C6.34 12.68 5.68 11.36 5 10 C4.67 10.33 4.34 10.66 4 11 C2.00041636 11.04080783 -0.00045254 11.04254356 -2 11 C-2 10.34 -2 9.68 -2 9 C-3.0828125 9.556875 -3.0828125 9.556875 -4.1875 10.125 C-7 11 -7 11 -9.75 10.375 C-12 9 -12 9 -12.8125 6.875 C-12.874375 6.25625 -12.93625 5.6375 -13 5 C-10.34702041 3.40821225 -8.50307461 2.93145857 -5.375 2.5 C-1.93577375 2.33300503 -1.93577375 2.33300503 0 0 Z " fill="#1B86AD" transform="translate(123,100)"/>
<path d="M0 0 C1.65 0 3.3 0 5 0 C5 0.66 5 1.32 5 2 C5.66 2 6.32 2 7 2 C6.34 3.65 5.68 5.3 5 7 C4.34 7 3.68 7 3 7 C3.165 7.94875 3.33 8.8975 3.5 9.875 C4 13 4 13 4 15 C4.99 15 5.98 15 7 15 C7.8125 16.6875 7.8125 16.6875 8 19 C5.5625 21.75 5.5625 21.75 3 24 C1.80880917 18.89489646 0.7354263 13.78585317 -0.1875 8.625 C-0.45626953 7.12839844 -0.45626953 7.12839844 -0.73046875 5.6015625 C-1 3 -1 3 0 0 Z " fill="#4F377D" transform="translate(43,66)"/>
<path d="M0 0 C2.64 0.66 5.28 1.32 8 2 C8 1.34 8 0.68 8 0 C9.65 0 11.3 0 13 0 C9.46435278 3.20418029 6.26480798 4.75923139 1.84375 6.28515625 C-0.43409695 7.16830454 -2.07467851 8.50942852 -4 10 C-5.6777413 10.74207788 -7.35756654 11.4809448 -9.05859375 12.16796875 C-11.89541874 13.38375089 -14.5889011 14.85763596 -17.30078125 16.328125 C-17.86152344 16.54984375 -18.42226563 16.7715625 -19 17 C-19.66 16.67 -20.32 16.34 -21 16 C-21 15.01 -21 14.02 -21 13 C-18.69 13 -16.38 13 -14 13 C-14 12.01 -14 11.02 -14 10 C-10.58529612 6.28836535 -5.74596373 5.86198059 -1 5 C-0.67 3.35 -0.34 1.7 0 0 Z " fill="#499AB6" transform="translate(55,96)"/>
<path d="M0 0 C1.30174773 3.90524318 0.95787745 7.02564884 0 11 C-1.375 12.5625 -1.375 12.5625 -3 14 C-4.14450375 16.2890075 -5.055793 18.61700137 -6 21 C-7.32 21 -8.64 21 -10 21 C-10 21.99 -10 22.98 -10 24 C-10.66 24 -11.32 24 -12 24 C-12.33 25.32 -12.66 26.64 -13 28 C-13.66 28 -14.32 28 -15 28 C-13.61880067 23.33933766 -11.64315247 19.2938717 -9.1875 15.125 C-8.65672852 14.21016846 -8.65672852 14.21016846 -8.11523438 13.27685547 C-5.50069447 8.79189563 -2.79821063 4.3722041 0 0 Z " fill="#A3549E" transform="translate(65,29)"/>
<path d="M0 0 C3.60651669 3.07221792 5.56921143 6.56076747 7.7578125 10.6796875 C8.89949646 12.81226698 10.12069881 14.87006563 11.375 16.9375 C11.91125 17.948125 12.4475 18.95875 13 20 C12.67 20.66 12.34 21.32 12 22 C11.01 22 10.02 22 9 22 C8.67 19.69 8.34 17.38 8 15 C7.01 15 6.02 15 5 15 C5 15.66 5 16.32 5 17 C4.01 17 3.02 17 2 17 C2 14.69 2 12.38 2 10 C1.34 9.67 0.68 9.34 0 9 C0 6.03 0 3.06 0 0 Z " fill="#9A3893" transform="translate(83,29)"/>
<path d="M0 0 C0.66 0.33 1.32 0.66 2 1 C3.55033393 5.80603519 3.0872355 11.00819059 3 16 C2.67 15.01 2.34 14.02 2 13 C-1.62528568 12.79859524 -3.86501708 13.14223235 -7 15 C-5.45454854 9.52067211 -2.84456788 4.88570819 0 0 Z " fill="#14B1DE" transform="translate(41,70)"/>
<path d="M0 0 C0.66 0.66 1.32 1.32 2 2 C1.70470308 4.90572173 1.29905198 7.64211404 0.75 10.5 C0.61464844 11.28503906 0.47929688 12.07007812 0.33984375 12.87890625 C-0.73493304 18.73493304 -0.73493304 18.73493304 -3 21 C-3.66 20.34 -4.32 19.68 -5 19 C-4.63723355 16.17042171 -3.90305236 13.70915709 -3 11 C-3.99 11.33 -4.98 11.66 -6 12 C-6 8.89448334 -5.4606285 7.64738916 -4 5 C-3.01 5 -2.02 5 -1 5 C-0.67 3.35 -0.34 1.7 0 0 Z " fill="#2A3F7D" transform="translate(105,69)"/>
<path d="M0 0 C2.31 0.33 4.62 0.66 7 1 C7 1.66 7 2.32 7 3 C9.31 3 11.62 3 14 3 C14 3.99 14 4.98 14 6 C15.32 6.66 16.64 7.32 18 8 C18 8.99 18 9.98 18 11 C11.95191575 9.36538263 6.19773156 6.47991227 1 3 C0.67 2.01 0.34 1.02 0 0 Z " fill="#1989B1" transform="translate(93,100)"/>
<path d="M0 0 C-0.33 0.66 -0.66 1.32 -1 2 C-1.33 1.67 -1.66 1.34 -2 1 C-4.71685562 3.71685562 -7.27404519 6.54809037 -9 10 C-9.99 10 -10.98 10 -12 10 C-12 6.7 -12 3.4 -12 0 C-7.44729118 -2.48329572 -4.775353 -1.68541871 0 0 Z " fill="#A24A9A" transform="translate(79,43)"/>
<path d="M0 0 C0.33 0 0.66 0 1 0 C1.08086376 2.93804996 1.1404283 5.87388075 1.1875 8.8125 C1.21263672 9.64587891 1.23777344 10.47925781 1.26367188 11.33789062 C1.27817383 12.54155273 1.27817383 12.54155273 1.29296875 13.76953125 C1.31653442 14.87711792 1.31653442 14.87711792 1.34057617 16.00708008 C0.89605388 18.60825244 0.13468265 19.47686044 -2 21 C-3.32 21 -4.64 21 -6 21 C-6 20.01 -6 19.02 -6 18 C-6.99 17.67 -7.98 17.34 -9 17 C-8.67 16.34 -8.34 15.68 -8 15 C-7.34 15 -6.68 15 -6 15 C-5.67 14.34 -5.34 13.68 -5 13 C-4.01 13.33 -3.02 13.66 -2 14 C-1.34 9.38 -0.68 4.76 0 0 Z " fill="#10A0D1" transform="translate(105,76)"/>
<path d="M0 0 C3.64757321 1.43715947 4.97325575 3.07711644 6.8125 6.5 C7.25207031 7.2940625 7.69164063 8.088125 8.14453125 8.90625 C8.56798828 9.94265625 8.56798828 9.94265625 9 11 C8.67 11.66 8.34 12.32 8 13 C4.9375 13.625 4.9375 13.625 2 14 C2.33 11.36 2.66 8.72 3 6 C1.68 5.67 0.36 5.34 -1 5 C-0.67 3.35 -0.34 1.7 0 0 Z " fill="#703C81" transform="translate(98,57)"/>
<path d="M0 0 C0 0.66 0 1.32 0 2 C-1.65 2.33 -3.3 2.66 -5 3 C-4.01 4.485 -4.01 4.485 -3 6 C-6.625 10.875 -6.625 10.875 -10 12 C-10.75 10.4375 -10.75 10.4375 -11 8 C-8.47682814 2.01236938 -6.5149145 -0.17144512 0 0 Z " fill="#A14999" transform="translate(77,19)"/>
<path d="M0 0 C0 1.32 0 2.64 0 4 C-0.99 3.67 -1.98 3.34 -3 3 C-3.33 4.65 -3.66 6.3 -4 8 C-6.9375 7.25 -6.9375 7.25 -10 6 C-10.875 3.875 -10.875 3.875 -11 2 C-7.36576791 -0.32590854 -4.22911669 -0.16265833 0 0 Z " fill="#0981B0" transform="translate(121,103)"/>
<path d="M0 0 C0.33 0.99 0.66 1.98 1 3 C0.34 3.66 -0.32 4.32 -1 5 C-1.60713803 6.85483454 -2.14131052 8.73421385 -2.625 10.625 C-2.88539062 11.62789062 -3.14578125 12.63078125 -3.4140625 13.6640625 C-3.60742188 14.43492188 -3.80078125 15.20578125 -4 16 C-5.32 16.33 -6.64 16.66 -8 17 C-8 17.66 -8 18.32 -8 19 C-8.66 19 -9.32 19 -10 19 C-8.62394084 14.23448987 -6.53221934 10.2751447 -3.875 6.125 C-3.50246094 5.53203125 -3.12992188 4.9390625 -2.74609375 4.328125 C-1.83635 2.8818657 -0.91896202 1.44041954 0 0 Z " fill="#42A9C8" transform="translate(33,85)"/>
<path d="M0 0 C1.5 1.375 1.5 1.375 3 3 C3 3.66 3 4.32 3 5 C3.99 5 4.98 5 6 5 C6.8125 6.6875 6.8125 6.6875 7 9 C4.5625 11.75 4.5625 11.75 2 14 C-0.29612756 4.58997722 -0.29612756 4.58997722 0 0 Z " fill="#243972" transform="translate(44,76)"/>
<path d="M0 0 C2.64 0.66 5.28 1.32 8 2 C8 1.34 8 0.68 8 0 C9.65 0 11.3 0 13 0 C9.47101908 3.19813896 6.20363141 4.86912042 1.76953125 6.38671875 C-0.07294974 6.98245062 -0.07294974 6.98245062 -2 8 C-2.33 7.01 -2.66 6.02 -3 5 C-2.34 5 -1.68 5 -1 5 C-0.67 3.35 -0.34 1.7 0 0 Z " fill="#36A4C6" transform="translate(55,96)"/>
<path d="M0 0 C2.49361571 1.20381448 4.68143083 2.45428722 7 4 C6.67 4.99 6.34 5.98 6 7 C6.99 8.485 6.99 8.485 8 10 C8.125 13.1875 8.125 13.1875 8 16 C6.9838154 14.67896002 5.98866506 13.34175973 5 12 C3.948125 10.576875 3.948125 10.576875 2.875 9.125 C0.96227268 5.93712113 0.34917061 3.66629145 0 0 Z " fill="#6A4480" transform="translate(85,59)"/>
<path d="M0 0 C2.71323406 2.3432476 4.0465616 4.53295129 5 8 C4.01 9.485 4.01 9.485 3 11 C0.5625 10.1875 0.5625 10.1875 -2 9 C-3 6 -3 6 -1.5625 2.8125 C-1.046875 1.884375 -0.53125 0.95625 0 0 Z " fill="#A04498" transform="translate(78,20)"/>
<path d="M0 0 C3 0 6 0 9 0 C8.01 0.495 8.01 0.495 7 1 C6.71125 1.9075 6.4225 2.815 6.125 3.75 C4.93219256 7.19588817 3.39471199 9.28599308 1 12 C0.06576355 8.98968256 -0.04449911 8.13349732 1 5 C1 4.01 1 3.02 1 2 C0.34 1.67 -0.32 1.34 -1 1 C-0.67 0.67 -0.34 0.34 0 0 Z " fill="#82438B" transform="translate(60,55)"/>
<path d="M0 0 C0 0.66 0 1.32 0 2 C-1.65532623 3.01866229 -3.32260138 4.01810813 -5 5 C-5.33 5.66 -5.66 6.32 -6 7 C-8.72265625 7.6328125 -8.72265625 7.6328125 -12.0625 8.125 C-13.16722656 8.29257813 -14.27195313 8.46015625 -15.41015625 8.6328125 C-16.69212891 8.81457031 -16.69212891 8.81457031 -18 9 C-16.6875 7 -16.6875 7 -15 5 C-14.01 5 -13.02 5 -12 5 C-10.28617224 4.22224996 -8.60029393 3.38159914 -6.9375 2.5 C-2.20833333 0 -2.20833333 0 0 0 Z " fill="#5FC5DE" transform="translate(65,81)"/>
<path d="M0 0 C1.21236328 0.02707031 1.21236328 0.02707031 2.44921875 0.0546875 C3.37154297 0.08949219 3.37154297 0.08949219 4.3125 0.125 C3.6525 1.775 2.9925 3.425 2.3125 5.125 C0.0025 5.125 -2.3075 5.125 -4.6875 5.125 C-4.6875 4.465 -4.6875 3.805 -4.6875 3.125 C-5.6775 2.795 -6.6675 2.465 -7.6875 2.125 C-4.48369983 -0.01086678 -3.66810033 -0.10632175 0 0 Z " fill="#0AA4CE" transform="translate(80.6875,88.875)"/>
<path d="M0 0 C0.33 0.66 0.66 1.32 1 2 C0.37943989 3.68437744 -0.29289322 5.35008418 -1 7 C-1.35858516 8.32676508 -1.7018576 9.65835921 -2 11 C-2.99 10.67 -3.98 10.34 -5 10 C-4.79375 9.05125 -4.5875 8.1025 -4.375 7.125 C-4.25125 6.09375 -4.1275 5.0625 -4 4 C-4.66 3.34 -5.32 2.68 -6 2 C-4.02 1.34 -2.04 0.68 0 0 Z " fill="#9B348F" transform="translate(77,20)"/>
<path d="M0 0 C0.99 0.33 1.98 0.66 3 1 C3.33 1.99 3.66 2.98 4 4 C2.35 4 0.7 4 -1 4 C-1.33 4.66 -1.66 5.32 -2 6 C-1.34 6.33 -0.68 6.66 0 7 C-0.33 8.32 -0.66 9.64 -1 11 C-2.32 10.67 -3.64 10.34 -5 10 C-5 6.21850924 -4.92257897 5.035651 -3 2 C-2.01 1.34 -1.02 0.68 0 0 Z " fill="#05ADDB" transform="translate(37,83)"/>
<path d="M0 0 C0.99 0 1.98 0 3 0 C3.33 2.31 3.66 4.62 4 7 C-2.64615385 5.52307692 -2.64615385 5.52307692 -4.4375 2.875 C-4.623125 2.25625 -4.80875 1.6375 -5 1 C-4.01 1.33 -3.02 1.66 -2 2 C-1.34 1.34 -0.68 0.68 0 0 Z " fill="#1574A0" transform="translate(26,109)"/>
<path d="M0 0 C1.98 0 3.96 0 6 0 C6 0.99 6 1.98 6 3 C6.66 3 7.32 3 8 3 C7.38722388 5.96175123 6.74627478 7.38058783 5 10 C3.35 6.7 1.7 3.4 0 0 Z " fill="#534F80" transform="translate(94,77)"/>
<path d="M0 0 C0.66 0.33 1.32 0.66 2 1 C2.4140625 3.06640625 2.4140625 3.06640625 2.625 5.5625 C2.69976562 6.38878906 2.77453125 7.21507813 2.8515625 8.06640625 C2.90054688 8.70449219 2.94953125 9.34257813 3 10 C2.34 9.67 1.68 9.34 1 9 C1 8.01 1 7.02 1 6 C0.34 6 -0.32 6 -1 6 C-1.103125 6.639375 -1.20625 7.27875 -1.3125 7.9375 C-1.539375 8.618125 -1.76625 9.29875 -2 10 C-2.99 10.33 -3.98 10.66 -5 11 C-3.55049545 7.2089881 -1.84827434 3.6125362 0 0 Z " fill="#44AED3" transform="translate(41,70)"/>
<path d="M0 0 C1.93922422 0.45098238 3.87633594 0.91105559 5.8125 1.375 C6.89144531 1.63023438 7.97039062 1.88546875 9.08203125 2.1484375 C12 3 12 3 15 5 C11.37795519 5.98097047 9.23570564 6.5566048 5.75390625 4.98828125 C3.74731212 3.73997225 1.8315776 2.49380615 0 1 C0 0.67 0 0.34 0 0 Z " fill="#4F91AE" transform="translate(113,111)"/>
<path d="M0 0 C0.99 0.495 0.99 0.495 2 1 C2 1.99 2 2.98 2 4 C2.66 4 3.32 4 4 4 C5.84827434 7.6125362 7.55049545 11.2089881 9 15 C5.3720655 13.33311117 4.11987953 12.23119624 2.25 8.625 C1.24754707 5.71788649 0.45929581 3.03135234 0 0 Z " fill="#5CC4DC" transform="translate(111,77)"/>
<path d="M0 0 C1.28981045 3.86943134 1.35825197 7.1192801 0 11 C-3.0625 13 -3.0625 13 -6 14 C-5.67 13.01 -5.34 12.02 -5 11 C-4.34 11 -3.68 11 -3 11 C-3.061875 10.113125 -3.12375 9.22625 -3.1875 8.3125 C-2.98048018 4.65514983 -2.083926 2.95222849 0 0 Z " fill="#9F4C95" transform="translate(65,29)"/>
<path d="M0 0 C1.0209375 0.2165625 1.0209375 0.2165625 2.0625 0.4375 C5.36273082 1.06945909 8.67144426 1.54313941 12 2 C12.33 3.65 12.66 5.3 13 7 C8.50202887 5.31326082 4.27113698 3.18326108 0 1 C0 0.67 0 0.34 0 0 Z " fill="#53A8C0" transform="translate(94,102)"/>
<path d="M0 0 C0.33 0.99 0.66 1.98 1 3 C1.66 3.33 2.32 3.66 3 4 C3 4.66 3 5.32 3 6 C0.69 6.66 -1.62 7.32 -4 8 C-4 7.34 -4 6.68 -4 6 C-3.01 6 -2.02 6 -1 6 C-2.9254644 3.7763932 -2.9254644 3.7763932 -6 3 C-4.60722783 0.21445565 -3.01148006 0 0 0 Z " fill="#2DB7DC" transform="translate(73,88)"/>
<path d="M0 0 C2.52349243 3.12432397 4.27256146 6.38060496 6 10 C5.01 10.495 5.01 10.495 4 11 C3.67 10.34 3.34 9.68 3 9 C2.01 9.495 2.01 9.495 1 10 C0.34 9.67 -0.32 9.34 -1 9 C-0.67 6.03 -0.34 3.06 0 0 Z " fill="#49ADCA" transform="translate(120,92)"/>
<path d="M0 0 C0.556875 0.78375 1.11375 1.5675 1.6875 2.375 C4.07668565 5.08704858 5.60073413 5.96133543 9 7 C9 7.66 9 8.32 9 9 C5.625 8.6875 5.625 8.6875 2 8 C-0.1519437 4.77208445 -0.20086443 3.71599191 0 0 Z " fill="#6FA7BB" transform="translate(19,108)"/>
<path d="M0 0 C7.68421053 -0.29554656 7.68421053 -0.29554656 11 2 C11.33 2.66 11.66 3.32 12 4 C14.01669827 5.13350534 14.01669827 5.13350534 16 6 C15.01 6.495 15.01 6.495 14 7 C11.7578125 6.07421875 11.7578125 6.07421875 9.125 4.6875 C8.26132813 4.23761719 7.39765625 3.78773437 6.5078125 3.32421875 C5.68023437 2.88722656 4.85265625 2.45023437 4 2 C2.6684648 1.32974912 1.3358093 0.66169158 0 0 Z " fill="#53B2CD" transform="translate(76,94)"/>
<path d="M0 0 C-0.6875 1.9375 -0.6875 1.9375 -2 4 C-4.4375 4.875 -4.4375 4.875 -7 5 C-7.99 4.34 -8.98 3.68 -10 3 C-7.14414946 0.14414946 -3.95889689 0 0 0 Z " fill="#3797B8" transform="translate(53,102)"/>
<path d="M0 0 C0.33 0.99 0.66 1.98 1 3 C0.01 4.485 0.01 4.485 -1 6 C-3.625 6.1875 -3.625 6.1875 -6 6 C-6.33 5.34 -6.66 4.68 -7 4 C-4.77810176 1.77810176 -2.91517292 1.07401108 0 0 Z " fill="#513975" transform="translate(58,69)"/>
<path d="M0 0 C2.15377564 2.62198774 3.40072174 4.64404172 4 8 C2.824375 7.9690625 2.824375 7.9690625 1.625 7.9375 C-0.98114961 7.81315937 -0.98114961 7.81315937 -3 9 C-2.67 7.35 -2.34 5.7 -2 4 C-1.34 4 -0.68 4 0 4 C0 2.68 0 1.36 0 0 Z " fill="#70538C" transform="translate(103,62)"/>
<path d="M0 0 C2.97069541 2.54631035 4.4775751 5.42230149 6 9 C5.67 9.66 5.34 10.32 5 11 C4.01 11 3.02 11 2 11 C0.80712589 7.12315913 0 4.08378077 0 0 Z " fill="#A45C9C" transform="translate(90,40)"/>
<path d="M0 0 C0.66 0.99 1.32 1.98 2 3 C1.2575 3.6496875 1.2575 3.6496875 0.5 4.3125 C-1.33218192 5.99740483 -1.33218192 5.99740483 -1 9 C-1.66 9 -2.32 9 -3 9 C-3.33 10.32 -3.66 11.64 -4 13 C-4.66 13 -5.32 13 -6 13 C-4.58707905 8.1725201 -2.57025846 4.2837641 0 0 Z " fill="#A975AA" transform="translate(56,44)"/>
<path d="M0 0 C1.32 0.33 2.64 0.66 4 1 C4.33 2.65 4.66 4.3 5 6 C5.66 6 6.32 6 7 6 C7 7.65 7 9.3 7 11 C4.59424393 8.81482901 3.20464419 6.74080329 1.8125 3.8125 C1.46832031 3.09707031 1.12414062 2.38164063 0.76953125 1.64453125 C0.51558594 1.10183594 0.26164062 0.55914062 0 0 Z " fill="#A16CA2" transform="translate(77,48)"/>
<path d="M0 0 C2.475 0.99 2.475 0.99 5 2 C4.67 3.32 4.34 4.64 4 6 C3.34 6 2.68 6 2 6 C1.34 6.99 0.68 7.98 0 9 C0 6.03 0 3.06 0 0 Z " fill="#03AFE3" transform="translate(105,84)"/>
<path d="M0 0 C1.65 0 3.3 0 5 0 C5.33 0.99 5.66 1.98 6 3 C5.01 3 4.02 3 3 3 C3 3.66 3 4.32 3 5 C1.68 4.67 0.36 4.34 -1 4 C-0.67 2.68 -0.34 1.36 0 0 Z " fill="#0EA2CD" transform="translate(66,91)"/>
<path d="M0 0 C0 1.98 0 3.96 0 6 C-1.32 6 -2.64 6 -4 6 C-4.33 4.68 -4.66 3.36 -5 2 C-1.125 0 -1.125 0 0 0 Z " fill="#157192" transform="translate(129,109)"/>
<path d="M0 0 C0.33 0 0.66 0 1 0 C1 3.63 1 7.26 1 11 C0.01 10.34 -0.98 9.68 -2 9 C-1.41196203 5.97580475 -0.77321882 2.98241547 0 0 Z " fill="#1F3468" transform="translate(102,79)"/>
<path d="M0 0 C3.48331435 3.01887244 4.79157144 5.56909529 6 10 C5.34 10.66 4.68 11.32 4 12 C3.3291288 10.3767313 2.66342971 8.75132422 2 7.125 C1.62875 6.22007813 1.2575 5.31515625 0.875 4.3828125 C0 2 0 2 0 0 Z " fill="#A662A0" transform="translate(83,29)"/>
<path d="M0 0 C0 0.99 0 1.98 0 3 C-0.99 3.33 -1.98 3.66 -3 4 C-3 4.99 -3 5.98 -3 7 C-4.32 6.34 -5.64 5.68 -7 5 C-6.34 5 -5.68 5 -5 5 C-4.67 4.01 -4.34 3.02 -4 2 C-1.9375 0.8125 -1.9375 0.8125 0 0 Z " fill="#33B8DB" transform="translate(70,78)"/>
<path d="M0 0 C0.763125 0.061875 1.52625 0.12375 2.3125 0.1875 C2.6425 1.5075 2.9725 2.8275 3.3125 4.1875 C0.3425 3.8575 -2.6275 3.5275 -5.6875 3.1875 C-2.6875 0.1875 -2.6875 0.1875 0 0 Z " fill="#04A9D8" transform="translate(78.6875,88.8125)"/>
<path d="M0 0 C2.50037734 2.17424117 3.43628586 3.73045798 4 7 C3.34 7 2.68 7 2 7 C2 6.34 2 5.68 2 5 C1.01 5 0.02 5 -1 5 C-0.67 3.35 -0.34 1.7 0 0 Z " fill="#47ACD8" transform="translate(107,70)"/>
<path d="M0 0 C0.66 0.33 1.32 0.66 2 1 C2 2.98 2 4.96 2 7 C1.01 7 0.02 7 -1 7 C-1.04254356 5.00045254 -1.04080783 2.99958364 -1 1 C-0.67 0.67 -0.34 0.34 0 0 Z " fill="#943B8F" transform="translate(68,46)"/>
<path d="M0 0 C1.32 0.33 2.64 0.66 4 1 C3.67 2.32 3.34 3.64 3 5 C2.01 5 1.02 5 0 5 C0 3.35 0 1.7 0 0 Z " fill="#097CA7" transform="translate(22,106)"/>
<path d="M0 0 C1.98 0.495 1.98 0.495 4 1 C2.92598892 3.91517292 2.22189824 5.77810176 0 8 C-0.98120464 4.94736336 -0.98120464 3.05263664 0 0 Z " fill="#864F96" transform="translate(61,59)"/>
<path d="M0 0 C0.66 0.66 1.32 1.32 2 2 C1.625 4.125 1.625 4.125 1 6 C-0.32 5.67 -1.64 5.34 -3 5 C-2.01 3.35 -1.02 1.7 0 0 Z " fill="#8D358D" transform="translate(56,48)"/>
<path d="M0 0 C1.98 0 3.96 0 6 0 C4.68 1.32 3.36 2.64 2 4 C1.01 3.34 0.02 2.68 -1 2 C-0.67 1.34 -0.34 0.68 0 0 Z " fill="#07A6D3" transform="translate(97,91)"/>
<path d="M0 0 C3.06630664 0.8974556 4.73038808 1.73038808 7 4 C3.7 3.34 0.4 2.68 -3 2 C-2.01 1.34 -1.02 0.68 0 0 Z " fill="#5DC5DD" transform="translate(74,76)"/>
<path d="M0 0 C0.99 0.66 1.98 1.32 3 2 C2.34 2 1.68 2 1 2 C1.33 3.32 1.66 4.64 2 6 C0.35 6.33 -1.3 6.66 -3 7 C-2.01 4.69 -1.02 2.38 0 0 Z " fill="#855893" transform="translate(47,59)"/>
<path d="M0 0 C0 0.66 0 1.32 0 2 C-2.64 2.66 -5.28 3.32 -8 4 C-7.67 3.01 -7.34 2.02 -7 1 C-4.53721199 -0.231394 -2.7204945 -0.07159196 0 0 Z " fill="#B889B5" transform="translate(77,19)"/>
</svg>
